<svg xmlns="http://www.w3.org/2000/svg" xmlns:xlink="http://www.w3.org/1999/xlink" width="500" zoomAndPan="magnify" viewBox="0 0 375 374.999991" height="500" preserveAspectRatio="xMidYMid meet" version="1.0"><defs><g/><clipPath id="9419728f72"><path d="M 92 83 L 263.617188 83 L 263.617188 276.441406 L 92 276.441406 Z M 92 83 " clip-rule="nonzero"/></clipPath><clipPath id="b16b4e2428"><path d="M 64.117188 92 L 114 92 L 114 276 L 64.117188 276 Z M 64.117188 92 " clip-rule="nonzero"/></clipPath></defs><g clip-path="url(#9419728f72)"><path fill="#100f0d" d="M 263.515625 225.636719 C 252.210938 230.40625 240.855469 235.003906 229.484375 239.566406 L 212.40625 246.332031 C 209.558594 247.445312 206.738281 248.65625 203.8125 249.535156 C 200.890625 250.4375 197.957031 251.300781 195.058594 252.269531 L 125.3125 274.917969 L 120.613281 276.441406 L 119.871094 271.558594 L 93.023438 94.015625 L 92.339844 89.515625 L 96.882812 89.207031 L 169.316406 84.316406 L 178.371094 83.6875 C 181.386719 83.425781 184.394531 83.109375 187.429688 83.1875 L 205.625 83.203125 C 217.753906 83.230469 229.890625 83.367188 242.03125 83.601562 C 230.03125 85.46875 218.023438 87.234375 206.007812 88.894531 L 187.984375 91.359375 C 184.984375 91.84375 181.960938 91.933594 178.9375 92.078125 L 169.882812 92.675781 L 97.449219 97.566406 L 101.3125 92.761719 L 128.160156 270.304688 L 122.722656 266.945312 L 192.46875 244.296875 C 195.386719 243.382812 198.265625 242.355469 201.15625 241.371094 C 204.042969 240.363281 207.035156 239.6875 209.996094 238.914062 L 227.792969 234.355469 C 239.671875 231.367188 251.566406 228.417969 263.515625 225.636719 " fill-opacity="1" fill-rule="nonzero"/></g><path fill="#100f0d" d="M 135.617188 122.265625 L 130.464844 88.207031 C 128.917969 77.980469 131.480469 67.902344 137.675781 59.839844 C 143.875 51.765625 152.964844 46.6875 163.269531 45.539062 C 184.367188 43.1875 204.125 58.335938 207.300781 79.3125 L 212.453125 113.371094 L 204.160156 114.625 L 199.011719 80.566406 C 196.503906 63.984375 180.90625 52 164.199219 53.863281 C 156.183594 54.761719 149.125 58.695312 144.324219 64.941406 C 139.53125 71.183594 137.550781 79 138.753906 86.953125 L 143.90625 121.011719 L 135.617188 122.265625 " fill-opacity="1" fill-rule="nonzero"/><path fill="#100f0d" d="M 197.480469 115.203125 C 198.378906 121.144531 203.953125 125.421875 209.933594 124.753906 C 215.914062 124.089844 220.03125 118.730469 219.132812 112.789062 C 218.234375 106.847656 212.660156 102.574219 206.679688 103.238281 C 200.699219 103.90625 196.582031 109.261719 197.480469 115.203125 " fill-opacity="1" fill-rule="nonzero"/><path fill="#100f0d" d="M 128.9375 122.847656 C 129.835938 128.789062 135.410156 133.0625 141.390625 132.398438 C 147.367188 131.730469 151.488281 126.375 150.585938 120.433594 C 149.6875 114.488281 144.113281 110.214844 138.136719 110.882812 C 132.15625 111.546875 128.039062 116.90625 128.9375 122.847656 " fill-opacity="1" fill-rule="nonzero"/><g clip-path="url(#b16b4e2428)"><path fill="#100f0d" d="M 85.34375 92.167969 C 85.714844 95.816406 86.007812 99.453125 86.246094 103.089844 C 86.527344 106.726562 86.6875 110.351562 86.875 113.980469 C 86.9375 115.792969 87.125 117.617188 87.085938 119.421875 C 87.050781 120.320312 86.863281 121.203125 86.757812 122.097656 C 86.636719 122.988281 86.5625 123.882812 86.476562 124.777344 L 85.460938 135.519531 L 81.40625 178.476562 L 73.296875 264.386719 L 67.042969 260.355469 C 67.742188 259.96875 68.207031 259.746094 68.777344 259.480469 C 69.324219 259.226562 69.867188 258.992188 70.414062 258.769531 C 71.503906 258.316406 72.609375 257.921875 73.726562 257.566406 C 75.964844 256.875 78.238281 256.28125 80.570312 255.863281 C 82.921875 255.53125 85.335938 255.738281 87.6875 256.015625 C 90.042969 256.328125 92.363281 256.871094 94.582031 257.640625 C 99.039062 259.175781 103.007812 261.75 106.214844 264.867188 C 109.433594 267.984375 111.933594 271.625 113.867188 275.441406 C 110.980469 272.273438 107.726562 269.53125 104.238281 267.433594 C 100.726562 265.351562 96.921875 264.074219 93.121094 263.582031 C 91.214844 263.351562 89.304688 263.320312 87.417969 263.476562 C 85.527344 263.59375 83.679688 264.058594 81.828125 264.351562 C 79.957031 264.554688 78.085938 264.949219 76.277344 265.546875 C 75.371094 265.835938 74.472656 266.15625 73.601562 266.515625 C 73.164062 266.695312 72.734375 266.882812 72.316406 267.078125 C 71.921875 267.257812 71.433594 267.503906 71.203125 267.632812 L 64.207031 271.484375 L 64.949219 263.597656 L 73.0625 177.6875 L 77.117188 134.730469 L 78.128906 123.992188 C 78.214844 123.097656 78.308594 122.203125 78.355469 121.304688 C 78.417969 120.40625 78.398438 119.503906 78.535156 118.613281 C 78.832031 116.835938 79.359375 115.078125 79.757812 113.3125 C 80.621094 109.78125 81.460938 106.25 82.414062 102.726562 C 83.328125 99.203125 84.296875 95.679688 85.34375 92.167969 " fill-opacity="1" fill-rule="nonzero"/></g><g fill="#00c4cc" fill-opacity="1"><g transform="translate(114.165099, 179.600666)"><g><path d="M 13.25 -1.6875 C 15.988281 -1.976562 18.347656 -2.832031 20.332031 -4.257812 C 22.261719 -5.675781 23.945312 -7.425781 25.328125 -9.550781 C 26.710938 -11.671875 27.808594 -14.015625 28.722656 -16.597656 C 29.636719 -19.175781 30.386719 -21.835938 31.078125 -24.542969 C 31.730469 -27.191406 32.328125 -29.832031 32.886719 -32.367188 C 33.449219 -34.902344 34.03125 -37.234375 34.707031 -39.269531 C 35.378906 -41.304688 36.152344 -42.941406 37.015625 -44.28125 C 37.882812 -45.570312 38.972656 -46.320312 40.339844 -46.492188 C 41.097656 -46.585938 41.691406 -46.347656 42.113281 -45.835938 C 42.492188 -45.265625 42.726562 -44.628906 42.777344 -43.8125 C 42.773438 -42.988281 42.613281 -42.199219 42.207031 -41.328125 C 41.804688 -40.457031 41.226562 -39.714844 40.480469 -39.109375 C 41.511719 -39.082031 42.464844 -39.253906 43.339844 -39.667969 C 44.210938 -40.085938 45.023438 -40.597656 45.65625 -41.289062 C 46.296875 -41.933594 46.820312 -42.667969 47.226562 -43.539062 C 47.582031 -44.40625 47.785156 -45.253906 47.78125 -46.125 C 47.777344 -46.996094 47.519531 -47.839844 47.101562 -48.710938 C 46.640625 -49.527344 45.933594 -50.265625 44.929688 -50.910156 C 43.996094 -51.410156 42.9375 -51.640625 41.761719 -51.597656 C 40.585938 -51.554688 39.398438 -51.203125 38.183594 -50.640625 C 36.921875 -50.023438 35.746094 -49.160156 34.59375 -48.09375 C 33.390625 -47.019531 32.371094 -45.710938 31.527344 -44.21875 C 30.511719 -42.453125 29.574219 -40.484375 28.816406 -38.285156 C 28.0625 -36.085938 27.3125 -33.835938 26.570312 -31.535156 C 25.824219 -29.234375 25.074219 -26.984375 24.3125 -24.835938 C 23.550781 -22.6875 22.613281 -20.722656 21.535156 -19.046875 C 20.457031 -17.375 19.191406 -15.984375 17.773438 -14.988281 C 16.304688 -13.984375 14.566406 -13.511719 12.554688 -13.570312 C 11.265625 -13.617188 10.289062 -14.011719 9.582031 -14.746094 C 8.875 -15.480469 8.347656 -16.441406 8.101562 -17.59375 C 7.8125 -18.6875 7.710938 -19.910156 7.804688 -21.253906 C 7.847656 -22.546875 8.058594 -23.753906 8.378906 -24.921875 C 8.703125 -26.042969 9.144531 -27.019531 9.664062 -27.804688 C 10.183594 -28.585938 10.742188 -29.066406 11.34375 -29.191406 C 9.878906 -29.832031 8.503906 -30.125 7.234375 -30.019531 C 5.914062 -29.910156 4.730469 -29.507812 3.679688 -28.863281 C 2.578125 -28.214844 1.609375 -27.324219 0.824219 -26.199219 C -0.015625 -25.066406 -0.679688 -23.804688 -1.125 -22.414062 C -1.621094 -21.015625 -1.949219 -19.539062 -2.066406 -17.980469 C -2.234375 -16.417969 -2.148438 -14.890625 -1.859375 -13.382812 C -1.480469 -11.171875 -0.789062 -9.304688 0.167969 -7.777344 C 1.085938 -6.195312 2.269531 -4.902344 3.621094 -3.941406 C 4.976562 -2.976562 6.449219 -2.285156 8.085938 -1.921875 C 9.726562 -1.507812 11.429688 -1.464844 13.25 -1.6875 Z M 13.25 -1.6875 "/></g></g></g><g fill="#00c4cc" fill-opacity="1"><g transform="translate(149.176916, 175.276411)"><g><path d="M -5.496094 0.832031 L 1.941406 -0.0859375 C 2.316406 -0.800781 2.691406 -1.515625 3.109375 -2.285156 C 3.476562 -3.050781 3.851562 -3.761719 4.269531 -4.535156 C 4.644531 -5.25 5.015625 -5.960938 5.390625 -6.675781 C 5.773438 -7.339844 6.144531 -8.054688 6.570312 -8.773438 C 7.324219 -10.152344 8.179688 -11.542969 9.035156 -12.929688 C 9.898438 -14.269531 10.804688 -15.667969 11.863281 -17.082031 C 12.484375 -17.878906 13.097656 -18.722656 13.765625 -19.578125 C 14.386719 -20.375 15.054688 -21.175781 15.691406 -21.871094 C 16.328125 -22.515625 16.929688 -23.050781 17.496094 -23.480469 C 18.058594 -23.910156 18.546875 -24.125 18.949219 -24.171875 C 19.210938 -24.152344 19.4375 -23.976562 19.683594 -23.648438 C 19.835938 -23.253906 19.707031 -22.621094 19.359375 -21.707031 C 18.925781 -20.625 18.496094 -19.546875 18.101562 -18.570312 C 17.65625 -17.59375 17.210938 -16.613281 16.761719 -15.683594 C 16.265625 -14.699219 15.816406 -13.769531 15.367188 -12.839844 C 14.921875 -11.859375 14.472656 -10.929688 14.074219 -10.007812 C 13.75 -9.300781 13.445312 -8.441406 13.152344 -7.480469 C 12.859375 -6.519531 12.769531 -5.585938 12.820312 -4.769531 C 12.824219 -3.894531 13.113281 -3.210938 13.644531 -2.660156 C 14.125 -2.105469 15.015625 -1.957031 16.332031 -2.121094 C 17.445312 -2.257812 18.566406 -2.753906 19.679688 -3.714844 C 20.792969 -4.675781 21.789062 -5.773438 22.761719 -7.023438 C 23.6875 -8.269531 24.457031 -9.542969 25.066406 -10.851562 C 25.671875 -12.160156 26.054688 -13.234375 26.152344 -14.121094 C 25.980469 -13.84375 25.851562 -13.621094 25.726562 -13.398438 C 25.546875 -13.171875 25.429688 -12.902344 25.300781 -12.679688 C 24.953125 -12.175781 24.546875 -11.714844 24.1875 -11.308594 C 23.824219 -10.90625 23.402344 -10.597656 22.96875 -10.335938 C 22.496094 -10.023438 22.054688 -9.863281 21.640625 -9.863281 C 21.1875 -9.808594 20.910156 -9.980469 20.761719 -10.320312 C 20.625 -10.613281 20.574219 -11.015625 20.664062 -11.542969 C 20.703125 -12.0625 20.886719 -12.648438 21.160156 -13.351562 C 21.390625 -13.996094 21.667969 -14.644531 21.953125 -15.246094 C 22.1875 -15.839844 22.5625 -16.554688 23.070312 -17.4375 C 23.277344 -17.824219 23.480469 -18.261719 23.734375 -18.703125 C 23.988281 -19.144531 24.191406 -19.582031 24.433594 -20.125 C 24.882812 -21.054688 25.328125 -22.03125 25.707031 -23.109375 C 26.097656 -24.132812 26.332031 -25.136719 26.472656 -26.078125 C 26.566406 -26.964844 26.421875 -27.714844 26.132812 -28.398438 C 25.84375 -29.082031 25.226562 -29.519531 24.363281 -29.824219 C 23.519531 -30.027344 22.65625 -29.921875 21.695312 -29.394531 C 20.734375 -28.863281 19.746094 -28.125 18.726562 -27.226562 C 17.714844 -26.28125 16.667969 -25.175781 15.679688 -24.027344 C 14.640625 -22.871094 13.703125 -21.726562 12.855469 -20.699219 L 16.3125 -26.828125 C 16.855469 -27.40625 17.683594 -28.179688 18.710938 -29.023438 C 19.230469 -29.398438 19.742188 -29.820312 20.300781 -30.300781 C 20.863281 -30.726562 21.421875 -31.207031 22.023438 -31.746094 C 23.1875 -32.710938 24.390625 -33.785156 25.582031 -34.957031 C 26.769531 -36.132812 27.90625 -37.351562 28.929688 -38.609375 C 29.773438 -39.6875 30.515625 -40.757812 31.199219 -41.867188 C 31.835938 -42.972656 32.273438 -44.003906 32.558594 -45.015625 C 32.800781 -45.96875 32.839844 -46.898438 32.6875 -47.703125 C 32.488281 -48.5 32.039062 -49.214844 31.242188 -49.835938 C 30.6875 -50.179688 30.035156 -50.457031 29.304688 -50.574219 C 28.570312 -50.6875 27.753906 -50.636719 26.90625 -50.429688 C 26.015625 -50.167969 25.191406 -49.757812 24.34375 -49.136719 C 23.496094 -48.519531 22.773438 -47.710938 22.125 -46.707031 C 20.027344 -43.3125 17.804688 -39.699219 15.496094 -35.921875 C 13.195312 -32.09375 10.8125 -28.101562 8.441406 -24.003906 C 6.023438 -19.855469 3.660156 -15.710938 1.300781 -11.515625 C -1.058594 -7.316406 -3.328125 -3.238281 -5.496094 0.832031 Z M 18.019531 -30.890625 L 27.910156 -46.445312 C 28.214844 -46.894531 28.589844 -47.195312 28.980469 -47.347656 C 29.378906 -47.449219 29.691406 -47.4375 30.019531 -47.269531 C 30.246094 -47.09375 30.488281 -46.816406 30.636719 -46.421875 C 30.789062 -46.03125 30.800781 -45.519531 30.722656 -44.890625 C 30.597656 -44.257812 30.277344 -43.5 29.867188 -42.679688 C 29.460938 -41.808594 28.808594 -40.855469 27.960938 -39.824219 C 27.25 -38.914062 26.382812 -38.035156 25.46875 -37.101562 C 24.507812 -36.160156 23.589844 -35.277344 22.664062 -34.445312 C 21.691406 -33.605469 20.808594 -32.828125 19.960938 -32.210938 C 19.113281 -31.589844 18.5 -31.15625 18.019531 -30.890625 Z M 18.019531 -30.890625 "/></g></g></g><g fill="#00c4cc" fill-opacity="1"><g transform="translate(172.349313, 172.414424)"><g><path d="M 1.777344 -0.167969 C 2.820312 -0.0390625 3.976562 -0.234375 5.25 -0.75 C 6.472656 -1.261719 7.71875 -1.980469 8.933594 -2.953125 C 10.105469 -3.867188 11.207031 -4.929688 12.234375 -6.1875 C 13.214844 -7.386719 14.03125 -8.667969 14.679688 -10.082031 C 15.148438 -9.628906 15.632812 -9.429688 16.191406 -9.5 C 16.746094 -9.570312 17.285156 -9.789062 17.796875 -10.210938 C 18.316406 -10.585938 18.824219 -11.058594 19.304688 -11.734375 C 19.742188 -12.351562 20.222656 -13.027344 20.648438 -13.75 C 21.027344 -14.414062 21.363281 -15.019531 21.644531 -15.671875 C 21.871094 -16.316406 22.0625 -16.851562 22.164062 -17.277344 L 22.101562 -17.371094 C 22.011719 -17.257812 21.925781 -17.144531 21.746094 -16.914062 C 21.570312 -16.6875 21.347656 -16.402344 21.082031 -16.0625 C 20.449219 -15.367188 19.816406 -14.671875 19.167969 -14.082031 C 18.53125 -13.4375 17.914062 -13 17.382812 -12.730469 C 16.800781 -12.453125 16.472656 -12.617188 16.335938 -13.320312 C 16.539062 -13.753906 16.742188 -14.191406 16.894531 -14.621094 C 17.046875 -15.050781 17.148438 -15.472656 17.300781 -15.902344 C 17.757812 -17.605469 17.992188 -19.019531 17.957031 -20.148438 C 17.914062 -21.324219 17.632812 -21.957031 17.113281 -21.996094 C 16.492188 -22.019531 15.867188 -21.6875 15.335938 -21.003906 C 14.757812 -20.265625 14.300781 -19.386719 13.964844 -18.371094 C 13.496094 -17.179688 13.238281 -15.917969 13.195312 -14.625 C 13.101562 -13.28125 13.285156 -12.222656 13.695312 -11.402344 C 12.410156 -10.164062 11.230469 -9.296875 10.167969 -8.757812 C 9.105469 -8.214844 8.167969 -7.894531 7.347656 -7.894531 C 6.582031 -7.851562 5.945312 -8.027344 5.476562 -8.484375 C 5.007812 -8.941406 4.726562 -9.574219 4.617188 -10.433594 C 4.46875 -11.238281 4.546875 -12.273438 4.863281 -13.445312 C 5.132812 -14.605469 5.675781 -16.011719 6.464844 -17.546875 C 7.160156 -18.96875 8.066406 -20.363281 9.234375 -21.742188 C 10.347656 -23.109375 11.679688 -24.40625 13.171875 -25.617188 C 14.351562 -26.480469 15.347656 -26.707031 16.15625 -26.398438 C 16.542969 -26.1875 16.839844 -25.863281 17.003906 -25.371094 C 17.167969 -24.878906 17.238281 -24.320312 17.121094 -23.589844 C 18.121094 -24.226562 18.699219 -24.964844 18.808594 -25.75 C 18.921875 -26.480469 18.789062 -27.132812 18.410156 -27.703125 C 18.160156 -28.082031 17.816406 -28.347656 17.433594 -28.558594 C 16.996094 -28.761719 16.574219 -28.863281 16.117188 -28.804688 C 14.800781 -28.644531 13.515625 -28.230469 12.164062 -27.546875 C 10.816406 -26.816406 9.484375 -25.933594 8.179688 -24.847656 C 6.832031 -23.703125 5.546875 -22.464844 4.332031 -21.082031 C 3.113281 -19.699219 2.011719 -18.230469 1.074219 -16.675781 C 0.644531 -16.003906 0.179688 -15.175781 -0.21875 -14.253906 C -0.664062 -13.273438 -1.058594 -12.300781 -1.394531 -11.285156 C -1.773438 -10.210938 -2.046875 -9.097656 -2.226562 -8.046875 C -2.398438 -6.945312 -2.476562 -5.910156 -2.414062 -4.992188 C -2.316406 -3.363281 -1.855469 -2.132812 -0.996094 -1.417969 C -0.1875 -0.695312 0.742188 -0.246094 1.777344 -0.167969 Z M 1.777344 -0.167969 "/></g></g></g><g fill="#00c4cc" fill-opacity="1"><g transform="translate(190.715102, 170.146093)"><g><path d="M 4.984375 -19.109375 L -17.65625 25.09375 C -16.945312 25.003906 -16.359375 24.777344 -15.800781 24.296875 L -14.167969 22.964844 C -13.605469 22.535156 -12.933594 22.144531 -12.160156 21.742188 C -11.382812 21.390625 -10.425781 21.21875 -9.199219 21.171875 L -8.75 20.242188 L 3.394531 -4.117188 C 4.253906 -2.992188 5.226562 -2.1875 6.25 -1.800781 C 7.230469 -1.355469 8.273438 -1.226562 9.378906 -1.414062 C 10.441406 -1.546875 11.523438 -1.9375 12.574219 -2.582031 C 13.625 -3.222656 14.65625 -4.019531 15.664062 -5.015625 C 16.957031 -6.203125 18.167969 -7.636719 19.300781 -9.269531 C 20.4375 -10.898438 21.457031 -12.617188 22.371094 -14.371094 C 23.28125 -16.128906 24.050781 -17.816406 24.660156 -19.535156 C 25.269531 -21.253906 25.6875 -22.847656 25.917969 -24.316406 C 26.097656 -25.777344 26.054688 -26.953125 25.828125 -27.953125 C 25.554688 -28.945312 25.015625 -29.546875 24.207031 -29.855469 C 23.675781 -29.996094 23.007812 -30.015625 22.246094 -29.921875 C 21.488281 -29.828125 20.601562 -29.515625 19.632812 -29.035156 C 18.621094 -28.5 17.476562 -27.792969 16.210938 -26.816406 C 14.894531 -25.828125 13.460938 -24.523438 11.902344 -22.996094 C 12.195312 -24.777344 12.027344 -26.144531 11.351562 -27.035156 C 10.632812 -27.871094 9.8125 -28.285156 8.789062 -28.261719 C 7.972656 -28.210938 7.179688 -27.960938 6.359375 -27.550781 C 5.542969 -27.089844 4.894531 -26.496094 4.371094 -25.761719 C 5.050781 -25.640625 5.546875 -25.394531 5.804688 -24.964844 C 6.070312 -24.484375 6.234375 -23.988281 6.207031 -23.371094 C 6.1875 -22.699219 6.015625 -22.011719 5.796875 -21.265625 C 5.582031 -20.519531 5.316406 -19.765625 5.035156 -19.117188 Z M 10.859375 -8.585938 C 9.996094 -8.476562 9.359375 -8.65625 8.941406 -9.117188 C 8.53125 -9.53125 8.261719 -10.0625 8.121094 -10.765625 C 7.941406 -11.410156 7.953125 -12.128906 8.113281 -12.921875 C 8.222656 -13.703125 8.496094 -14.40625 8.824219 -15.0625 L 8.875 -15.070312 C 9.363281 -16.105469 10.042969 -17.269531 10.910156 -18.558594 C 11.785156 -19.796875 12.710938 -21.039062 13.742188 -22.246094 C 14.730469 -23.394531 15.789062 -24.398438 16.902344 -25.359375 C 18.023438 -26.269531 19.125 -26.917969 20.199219 -27.359375 C 20.984375 -27.660156 21.605469 -27.636719 22.054688 -27.332031 C 22.5 -27.027344 22.714844 -26.539062 22.804688 -25.832031 C 22.847656 -25.066406 22.75 -24.179688 22.515625 -23.175781 C 22.285156 -22.121094 21.957031 -21.050781 21.480469 -19.914062 C 21.074219 -19.042969 20.492188 -17.941406 19.71875 -16.714844 C 18.898438 -15.433594 17.972656 -14.191406 16.984375 -13.039062 C 15.953125 -11.832031 14.894531 -10.828125 13.820312 -9.976562 C 12.742188 -9.125 11.773438 -8.644531 10.859375 -8.585938 Z M 10.859375 -8.585938 "/></g></g></g><g fill="#5ce1e6" fill-opacity="1"><g transform="translate(115.298852, 178.775712)"><g><path d="M 13.25 -1.6875 C 15.988281 -1.976562 18.347656 -2.832031 20.332031 -4.257812 C 22.261719 -5.675781 23.945312 -7.425781 25.328125 -9.550781 C 26.710938 -11.671875 27.808594 -14.015625 28.722656 -16.597656 C 29.636719 -19.175781 30.386719 -21.835938 31.078125 -24.542969 C 31.730469 -27.191406 32.328125 -29.832031 32.886719 -32.367188 C 33.449219 -34.902344 34.03125 -37.234375 34.707031 -39.269531 C 35.378906 -41.304688 36.152344 -42.941406 37.015625 -44.28125 C 37.882812 -45.570312 38.972656 -46.320312 40.339844 -46.492188 C 41.097656 -46.585938 41.691406 -46.347656 42.113281 -45.835938 C 42.492188 -45.265625 42.726562 -44.628906 42.777344 -43.8125 C 42.773438 -42.988281 42.613281 -42.199219 42.207031 -41.328125 C 41.804688 -40.457031 41.226562 -39.714844 40.480469 -39.109375 C 41.511719 -39.082031 42.464844 -39.253906 43.339844 -39.667969 C 44.210938 -40.085938 45.023438 -40.597656 45.65625 -41.289062 C 46.296875 -41.933594 46.820312 -42.667969 47.226562 -43.539062 C 47.582031 -44.40625 47.785156 -45.253906 47.78125 -46.125 C 47.777344 -46.996094 47.519531 -47.839844 47.101562 -48.710938 C 46.640625 -49.527344 45.933594 -50.265625 44.929688 -50.910156 C 43.996094 -51.410156 42.9375 -51.640625 41.761719 -51.597656 C 40.585938 -51.554688 39.398438 -51.203125 38.183594 -50.640625 C 36.921875 -50.023438 35.746094 -49.160156 34.59375 -48.09375 C 33.390625 -47.019531 32.371094 -45.710938 31.527344 -44.21875 C 30.511719 -42.453125 29.574219 -40.484375 28.816406 -38.285156 C 28.0625 -36.085938 27.3125 -33.835938 26.570312 -31.535156 C 25.824219 -29.234375 25.074219 -26.984375 24.3125 -24.835938 C 23.550781 -22.6875 22.613281 -20.722656 21.535156 -19.046875 C 20.457031 -17.375 19.191406 -15.984375 17.773438 -14.988281 C 16.304688 -13.984375 14.566406 -13.511719 12.554688 -13.570312 C 11.265625 -13.617188 10.289062 -14.011719 9.582031 -14.746094 C 8.875 -15.480469 8.347656 -16.441406 8.101562 -17.59375 C 7.8125 -18.6875 7.710938 -19.910156 7.804688 -21.253906 C 7.847656 -22.546875 8.058594 -23.753906 8.378906 -24.921875 C 8.703125 -26.042969 9.144531 -27.019531 9.664062 -27.804688 C 10.183594 -28.585938 10.742188 -29.066406 11.34375 -29.191406 C 9.878906 -29.832031 8.503906 -30.125 7.234375 -30.019531 C 5.914062 -29.910156 4.730469 -29.507812 3.679688 -28.863281 C 2.578125 -28.214844 1.609375 -27.324219 0.824219 -26.199219 C -0.015625 -25.066406 -0.679688 -23.804688 -1.125 -22.414062 C -1.621094 -21.015625 -1.949219 -19.539062 -2.066406 -17.980469 C -2.234375 -16.417969 -2.148438 -14.890625 -1.859375 -13.382812 C -1.480469 -11.171875 -0.789062 -9.304688 0.167969 -7.777344 C 1.085938 -6.195312 2.269531 -4.902344 3.621094 -3.941406 C 4.976562 -2.976562 6.449219 -2.285156 8.085938 -1.921875 C 9.726562 -1.507812 11.429688 -1.464844 13.25 -1.6875 Z M 13.25 -1.6875 "/></g></g></g><g fill="#5ce1e6" fill-opacity="1"><g transform="translate(150.310669, 174.451456)"><g><path d="M -5.496094 0.832031 L 1.941406 -0.0859375 C 2.316406 -0.800781 2.691406 -1.515625 3.109375 -2.285156 C 3.476562 -3.050781 3.851562 -3.761719 4.269531 -4.535156 C 4.644531 -5.25 5.015625 -5.960938 5.390625 -6.675781 C 5.773438 -7.339844 6.144531 -8.054688 6.570312 -8.773438 C 7.324219 -10.152344 8.179688 -11.542969 9.035156 -12.929688 C 9.898438 -14.269531 10.804688 -15.667969 11.863281 -17.082031 C 12.484375 -17.878906 13.097656 -18.722656 13.765625 -19.578125 C 14.386719 -20.375 15.054688 -21.175781 15.691406 -21.871094 C 16.328125 -22.515625 16.929688 -23.050781 17.496094 -23.480469 C 18.058594 -23.910156 18.546875 -24.125 18.949219 -24.171875 C 19.210938 -24.152344 19.4375 -23.976562 19.683594 -23.648438 C 19.835938 -23.253906 19.707031 -22.621094 19.359375 -21.707031 C 18.925781 -20.625 18.496094 -19.546875 18.101562 -18.570312 C 17.65625 -17.59375 17.210938 -16.613281 16.761719 -15.683594 C 16.265625 -14.699219 15.816406 -13.769531 15.367188 -12.839844 C 14.921875 -11.859375 14.472656 -10.929688 14.074219 -10.007812 C 13.75 -9.300781 13.445312 -8.441406 13.152344 -7.480469 C 12.859375 -6.519531 12.769531 -5.585938 12.820312 -4.769531 C 12.824219 -3.894531 13.113281 -3.210938 13.644531 -2.660156 C 14.125 -2.105469 15.015625 -1.957031 16.332031 -2.121094 C 17.445312 -2.257812 18.566406 -2.753906 19.679688 -3.714844 C 20.792969 -4.675781 21.789062 -5.773438 22.761719 -7.023438 C 23.6875 -8.269531 24.457031 -9.542969 25.066406 -10.851562 C 25.671875 -12.160156 26.054688 -13.234375 26.152344 -14.121094 C 25.980469 -13.84375 25.851562 -13.621094 25.726562 -13.398438 C 25.546875 -13.171875 25.429688 -12.902344 25.300781 -12.679688 C 24.953125 -12.175781 24.546875 -11.714844 24.1875 -11.308594 C 23.824219 -10.90625 23.402344 -10.597656 22.96875 -10.335938 C 22.496094 -10.023438 22.054688 -9.863281 21.640625 -9.863281 C 21.1875 -9.808594 20.910156 -9.980469 20.761719 -10.320312 C 20.625 -10.613281 20.574219 -11.015625 20.664062 -11.542969 C 20.703125 -12.0625 20.886719 -12.648438 21.160156 -13.351562 C 21.390625 -13.996094 21.667969 -14.644531 21.953125 -15.246094 C 22.1875 -15.839844 22.5625 -16.554688 23.070312 -17.4375 C 23.277344 -17.824219 23.480469 -18.261719 23.734375 -18.703125 C 23.988281 -19.144531 24.191406 -19.582031 24.433594 -20.125 C 24.882812 -21.054688 25.328125 -22.03125 25.707031 -23.109375 C 26.097656 -24.132812 26.332031 -25.136719 26.472656 -26.078125 C 26.566406 -26.964844 26.421875 -27.714844 26.132812 -28.398438 C 25.84375 -29.082031 25.226562 -29.519531 24.363281 -29.824219 C 23.519531 -30.027344 22.65625 -29.921875 21.695312 -29.394531 C 20.734375 -28.863281 19.746094 -28.125 18.726562 -27.226562 C 17.714844 -26.28125 16.667969 -25.175781 15.679688 -24.027344 C 14.640625 -22.871094 13.703125 -21.726562 12.855469 -20.699219 L 16.3125 -26.828125 C 16.855469 -27.40625 17.683594 -28.179688 18.710938 -29.023438 C 19.230469 -29.398438 19.742188 -29.820312 20.300781 -30.300781 C 20.863281 -30.726562 21.421875 -31.207031 22.023438 -31.746094 C 23.1875 -32.710938 24.390625 -33.785156 25.582031 -34.957031 C 26.769531 -36.132812 27.90625 -37.351562 28.929688 -38.609375 C 29.773438 -39.6875 30.515625 -40.757812 31.199219 -41.867188 C 31.835938 -42.972656 32.273438 -44.003906 32.558594 -45.015625 C 32.800781 -45.96875 32.839844 -46.898438 32.6875 -47.703125 C 32.488281 -48.5 32.039062 -49.214844 31.242188 -49.835938 C 30.6875 -50.179688 30.035156 -50.457031 29.304688 -50.574219 C 28.570312 -50.6875 27.753906 -50.636719 26.90625 -50.429688 C 26.015625 -50.167969 25.191406 -49.757812 24.34375 -49.136719 C 23.496094 -48.519531 22.773438 -47.710938 22.125 -46.707031 C 20.027344 -43.3125 17.804688 -39.699219 15.496094 -35.921875 C 13.195312 -32.09375 10.8125 -28.101562 8.441406 -24.003906 C 6.023438 -19.855469 3.660156 -15.710938 1.300781 -11.515625 C -1.058594 -7.316406 -3.328125 -3.238281 -5.496094 0.832031 Z M 18.019531 -30.890625 L 27.910156 -46.445312 C 28.214844 -46.894531 28.589844 -47.195312 28.980469 -47.347656 C 29.378906 -47.449219 29.691406 -47.4375 30.019531 -47.269531 C 30.246094 -47.09375 30.488281 -46.816406 30.636719 -46.421875 C 30.789062 -46.03125 30.800781 -45.519531 30.722656 -44.890625 C 30.597656 -44.257812 30.277344 -43.5 29.867188 -42.679688 C 29.460938 -41.808594 28.808594 -40.855469 27.960938 -39.824219 C 27.25 -38.914062 26.382812 -38.035156 25.46875 -37.101562 C 24.507812 -36.160156 23.589844 -35.277344 22.664062 -34.445312 C 21.691406 -33.605469 20.808594 -32.828125 19.960938 -32.210938 C 19.113281 -31.589844 18.5 -31.15625 18.019531 -30.890625 Z M 18.019531 -30.890625 "/></g></g></g><g fill="#5ce1e6" fill-opacity="1"><g transform="translate(173.483066, 171.589469)"><g><path d="M 1.777344 -0.167969 C 2.820312 -0.0390625 3.976562 -0.234375 5.25 -0.75 C 6.472656 -1.261719 7.71875 -1.980469 8.933594 -2.953125 C 10.105469 -3.867188 11.207031 -4.929688 12.234375 -6.1875 C 13.214844 -7.386719 14.03125 -8.667969 14.679688 -10.082031 C 15.148438 -9.628906 15.632812 -9.429688 16.191406 -9.5 C 16.746094 -9.570312 17.285156 -9.789062 17.796875 -10.210938 C 18.316406 -10.585938 18.824219 -11.058594 19.304688 -11.734375 C 19.742188 -12.351562 20.222656 -13.027344 20.648438 -13.75 C 21.027344 -14.414062 21.363281 -15.019531 21.644531 -15.671875 C 21.871094 -16.316406 22.0625 -16.851562 22.164062 -17.277344 L 22.101562 -17.371094 C 22.011719 -17.257812 21.925781 -17.144531 21.746094 -16.914062 C 21.570312 -16.6875 21.347656 -16.402344 21.082031 -16.0625 C 20.449219 -15.367188 19.816406 -14.671875 19.167969 -14.082031 C 18.53125 -13.4375 17.914062 -13 17.382812 -12.730469 C 16.800781 -12.453125 16.472656 -12.617188 16.335938 -13.320312 C 16.539062 -13.753906 16.742188 -14.191406 16.894531 -14.621094 C 17.046875 -15.050781 17.148438 -15.472656 17.300781 -15.902344 C 17.757812 -17.605469 17.992188 -19.019531 17.957031 -20.148438 C 17.914062 -21.324219 17.632812 -21.957031 17.113281 -21.996094 C 16.492188 -22.019531 15.867188 -21.6875 15.335938 -21.003906 C 14.757812 -20.265625 14.300781 -19.386719 13.964844 -18.371094 C 13.496094 -17.179688 13.238281 -15.917969 13.195312 -14.625 C 13.101562 -13.28125 13.285156 -12.222656 13.695312 -11.402344 C 12.410156 -10.164062 11.230469 -9.296875 10.167969 -8.757812 C 9.105469 -8.214844 8.167969 -7.894531 7.347656 -7.894531 C 6.582031 -7.851562 5.945312 -8.027344 5.476562 -8.484375 C 5.007812 -8.941406 4.726562 -9.574219 4.617188 -10.433594 C 4.46875 -11.238281 4.546875 -12.273438 4.863281 -13.445312 C 5.132812 -14.605469 5.675781 -16.011719 6.464844 -17.546875 C 7.160156 -18.96875 8.066406 -20.363281 9.234375 -21.742188 C 10.347656 -23.109375 11.679688 -24.40625 13.171875 -25.617188 C 14.351562 -26.480469 15.347656 -26.707031 16.15625 -26.398438 C 16.542969 -26.1875 16.839844 -25.863281 17.003906 -25.371094 C 17.167969 -24.878906 17.238281 -24.320312 17.121094 -23.589844 C 18.121094 -24.226562 18.699219 -24.964844 18.808594 -25.75 C 18.921875 -26.480469 18.789062 -27.132812 18.410156 -27.703125 C 18.160156 -28.082031 17.816406 -28.347656 17.433594 -28.558594 C 16.996094 -28.761719 16.574219 -28.863281 16.117188 -28.804688 C 14.800781 -28.644531 13.515625 -28.230469 12.164062 -27.546875 C 10.816406 -26.816406 9.484375 -25.933594 8.179688 -24.847656 C 6.832031 -23.703125 5.546875 -22.464844 4.332031 -21.082031 C 3.113281 -19.699219 2.011719 -18.230469 1.074219 -16.675781 C 0.644531 -16.003906 0.179688 -15.175781 -0.21875 -14.253906 C -0.664062 -13.273438 -1.058594 -12.300781 -1.394531 -11.285156 C -1.773438 -10.210938 -2.046875 -9.097656 -2.226562 -8.046875 C -2.398438 -6.945312 -2.476562 -5.910156 -2.414062 -4.992188 C -2.316406 -3.363281 -1.855469 -2.132812 -0.996094 -1.417969 C -0.1875 -0.695312 0.742188 -0.246094 1.777344 -0.167969 Z M 1.777344 -0.167969 "/></g></g></g><g fill="#5ce1e6" fill-opacity="1"><g transform="translate(191.848854, 169.321139)"><g><path d="M 4.984375 -19.109375 L -17.65625 25.09375 C -16.945312 25.003906 -16.359375 24.777344 -15.800781 24.296875 L -14.167969 22.964844 C -13.605469 22.535156 -12.933594 22.144531 -12.160156 21.742188 C -11.382812 21.390625 -10.425781 21.21875 -9.199219 21.171875 L -8.75 20.242188 L 3.394531 -4.117188 C 4.253906 -2.992188 5.226562 -2.1875 6.25 -1.800781 C 7.230469 -1.355469 8.273438 -1.226562 9.378906 -1.414062 C 10.441406 -1.546875 11.523438 -1.9375 12.574219 -2.582031 C 13.625 -3.222656 14.65625 -4.019531 15.664062 -5.015625 C 16.957031 -6.203125 18.167969 -7.636719 19.300781 -9.269531 C 20.4375 -10.898438 21.457031 -12.617188 22.371094 -14.371094 C 23.28125 -16.128906 24.050781 -17.816406 24.660156 -19.535156 C 25.269531 -21.253906 25.6875 -22.847656 25.917969 -24.316406 C 26.097656 -25.777344 26.054688 -26.953125 25.828125 -27.953125 C 25.554688 -28.945312 25.015625 -29.546875 24.207031 -29.855469 C 23.675781 -29.996094 23.007812 -30.015625 22.246094 -29.921875 C 21.488281 -29.828125 20.601562 -29.515625 19.632812 -29.035156 C 18.621094 -28.5 17.476562 -27.792969 16.210938 -26.816406 C 14.894531 -25.828125 13.460938 -24.523438 11.902344 -22.996094 C 12.195312 -24.777344 12.027344 -26.144531 11.351562 -27.035156 C 10.632812 -27.871094 9.8125 -28.285156 8.789062 -28.261719 C 7.972656 -28.210938 7.179688 -27.960938 6.359375 -27.550781 C 5.542969 -27.089844 4.894531 -26.496094 4.371094 -25.761719 C 5.050781 -25.640625 5.546875 -25.394531 5.804688 -24.964844 C 6.070312 -24.484375 6.234375 -23.988281 6.207031 -23.371094 C 6.1875 -22.699219 6.015625 -22.011719 5.796875 -21.265625 C 5.582031 -20.519531 5.316406 -19.765625 5.035156 -19.117188 Z M 10.859375 -8.585938 C 9.996094 -8.476562 9.359375 -8.65625 8.941406 -9.117188 C 8.53125 -9.53125 8.261719 -10.0625 8.121094 -10.765625 C 7.941406 -11.410156 7.953125 -12.128906 8.113281 -12.921875 C 8.222656 -13.703125 8.496094 -14.40625 8.824219 -15.0625 L 8.875 -15.070312 C 9.363281 -16.105469 10.042969 -17.269531 10.910156 -18.558594 C 11.785156 -19.796875 12.710938 -21.039062 13.742188 -22.246094 C 14.730469 -23.394531 15.789062 -24.398438 16.902344 -25.359375 C 18.023438 -26.269531 19.125 -26.917969 20.199219 -27.359375 C 20.984375 -27.660156 21.605469 -27.636719 22.054688 -27.332031 C 22.5 -27.027344 22.714844 -26.539062 22.804688 -25.832031 C 22.847656 -25.066406 22.75 -24.179688 22.515625 -23.175781 C 22.285156 -22.121094 21.957031 -21.050781 21.480469 -19.914062 C 21.074219 -19.042969 20.492188 -17.941406 19.71875 -16.714844 C 18.898438 -15.433594 17.972656 -14.191406 16.984375 -13.039062 C 15.953125 -11.832031 14.894531 -10.828125 13.820312 -9.976562 C 12.742188 -9.125 11.773438 -8.644531 10.859375 -8.585938 Z M 10.859375 -8.585938 "/></g></g></g><g fill="#ff914d" fill-opacity="1"><g transform="translate(200.313005, 210.546475)"><g><path d="M 19.359375 -36.246094 C 20.15625 -36.445312 20.941406 -36.75 21.605469 -37.191406 C 22.269531 -37.632812 22.867188 -38.21875 23.289062 -38.941406 C 23.722656 -39.609375 23.980469 -40.410156 24.121094 -41.355469 C 24.210938 -42.289062 24.136719 -43.308594 23.886719 -44.511719 C 23.027344 -43.992188 22.335938 -43.753906 21.703125 -43.878906 C 21.078125 -43.957031 20.527344 -44.25 20.113281 -44.710938 C 19.644531 -45.167969 19.367188 -45.75 19.222656 -46.503906 C 19.085938 -47.203125 19.144531 -47.980469 19.351562 -48.777344 C 19.726562 -50.316406 20.515625 -51.4375 21.652344 -52.195312 C 22.792969 -52.953125 24.171875 -53.433594 25.691406 -53.621094 C 26.804688 -53.757812 28.085938 -53.761719 29.484375 -53.675781 C 30.785156 -53.53125 32.101562 -53.28125 33.367188 -53.027344 C 34.636719 -52.722656 35.804688 -52.402344 36.980469 -52.035156 C 37.527344 -51.792969 38.0625 -51.601562 38.542969 -51.457031 C 38.980469 -51.253906 39.464844 -51.058594 39.902344 -50.855469 C 40.339844 -50.652344 40.773438 -50.449219 41.265625 -50.199219 C 41.710938 -49.949219 42.253906 -49.707031 42.796875 -49.464844 C 43.351562 -49.121094 43.902344 -48.832031 44.496094 -48.597656 C 45.089844 -48.363281 45.691406 -48.074219 46.335938 -47.847656 C 47.585938 -47.28125 48.820312 -46.871094 50.097656 -46.515625 C 51.371094 -46.15625 52.566406 -46.046875 53.730469 -46.191406 C 54.648438 -46.253906 55.492188 -46.511719 56.210938 -46.910156 C 56.933594 -47.308594 57.542969 -47.792969 58.027344 -48.417969 C 58.472656 -48.988281 58.808594 -49.59375 59.023438 -50.339844 C 59.242188 -51.085938 59.304688 -51.8125 59.261719 -52.578125 C 59.15625 -53.847656 58.59375 -55.0625 57.628906 -56.230469 C 56.664062 -57.394531 55.179688 -58.1875 53.269531 -58.671875 L 53.28125 -58.570312 C 53.332031 -57.34375 53.191406 -56.398438 52.921875 -55.648438 C 52.65625 -54.894531 52.269531 -54.28125 51.75 -53.910156 C 51.1875 -53.480469 50.605469 -53.203125 49.898438 -53.117188 C 49.195312 -52.976562 48.429688 -52.933594 47.703125 -53 C 46.671875 -53.027344 45.683594 -53.109375 44.742188 -53.25 C 43.808594 -53.339844 42.859375 -53.53125 41.957031 -53.78125 C 40.109375 -54.167969 38.3125 -54.5625 36.570312 -54.964844 C 34.824219 -55.363281 33.042969 -55.65625 31.171875 -55.835938 C 29.296875 -56.019531 27.464844 -55.894531 25.707031 -55.574219 C 23.898438 -55.246094 22.300781 -54.84375 20.871094 -54.359375 C 19.398438 -53.820312 18.089844 -53.195312 16.898438 -52.429688 C 15.65625 -51.660156 14.632812 -50.816406 13.777344 -49.835938 C 12.878906 -48.800781 12.191406 -47.6875 11.832031 -46.460938 C 11.472656 -45.1875 11.378906 -43.890625 11.546875 -42.523438 C 11.722656 -41.105469 12.128906 -39.871094 12.8125 -38.929688 C 13.457031 -37.878906 14.328125 -37.0625 15.421875 -36.527344 C 16.519531 -35.945312 17.867188 -35.855469 19.359375 -36.246094 Z M 7.96875 -0.777344 C 9.601562 -0.878906 11.171875 -1.480469 12.632812 -2.535156 C 14.09375 -3.589844 15.511719 -5 16.84375 -6.703125 C 18.175781 -8.410156 19.433594 -10.261719 20.664062 -12.363281 C 21.84375 -14.460938 23.0625 -16.667969 24.214844 -18.96875 C 24.839844 -20.175781 25.535156 -21.597656 26.371094 -23.136719 C 27.160156 -24.671875 28.035156 -26.324219 28.949219 -28.078125 L 32.4375 -28.511719 C 31.894531 -27.929688 31.375 -27.144531 30.929688 -26.167969 C 30.4375 -25.179688 30.136719 -24.269531 29.996094 -23.328125 C 29.8125 -22.328125 29.917969 -21.46875 30.320312 -20.699219 C 30.726562 -19.925781 31.496094 -19.507812 32.746094 -19.351562 C 33.792969 -19.226562 34.835938 -19.507812 35.929688 -20.207031 C 36.929688 -20.847656 37.652344 -21.65625 38.148438 -22.640625 L 37.558594 -22.414062 C 36.445312 -22.277344 35.558594 -22.371094 34.898438 -22.753906 C 34.132812 -23.121094 33.746094 -23.742188 33.640625 -24.601562 C 33.535156 -25.460938 33.871094 -26.480469 34.59375 -27.699219 C 35.144531 -28.640625 35.804688 -29.542969 36.519531 -30.402344 C 37.242188 -31.210938 38.015625 -32.023438 38.839844 -32.847656 C 38.460938 -33.003906 38.085938 -33.113281 37.78125 -33.074219 C 37.480469 -33.039062 37.136719 -32.890625 36.75 -32.691406 C 36.421875 -32.445312 36.09375 -32.199219 35.816406 -31.957031 C 35.492188 -31.660156 35.214844 -31.421875 34.984375 -31.1875 L 30.277344 -30.605469 C 31.371094 -32.589844 32.472656 -34.472656 33.574219 -36.355469 C 34.679688 -38.238281 35.808594 -39.921875 36.949219 -41.5 C 38.042969 -43.023438 39.070312 -44.277344 40.082031 -45.226562 C 41.046875 -46.167969 41.953125 -46.742188 42.75 -46.941406 C 41.769531 -47.796875 40.71875 -47.976562 39.542969 -47.523438 C 38.367188 -47.070312 37.136719 -46.199219 35.757812 -44.898438 L 35.699219 -44.941406 C 35.332031 -44.589844 34.75 -43.898438 34.054688 -42.890625 C 33.355469 -41.878906 32.53125 -40.644531 31.621094 -39.300781 C 30.664062 -37.898438 29.667969 -36.386719 28.628906 -34.820312 C 28.0625 -33.980469 27.492188 -33.191406 26.972656 -32.40625 C 26.453125 -31.625 25.882812 -30.835938 25.363281 -30.050781 L 18.332031 -29.183594 L 16.03125 -26.585938 L 23.519531 -27.511719 C 22.734375 -26.386719 21.9375 -25.363281 21.175781 -24.449219 C 20.367188 -23.527344 19.648438 -22.667969 18.964844 -21.964844 C 17.964844 -20.917969 17.003906 -19.976562 16.085938 -19.09375 C 15.117188 -18.203125 14.183594 -17.421875 13.285156 -16.796875 C 12.34375 -16.113281 11.480469 -15.597656 10.652344 -15.238281 C 9.78125 -14.820312 9.03125 -14.625 8.3125 -14.640625 C 7.597656 -14.601562 6.910156 -14.773438 6.300781 -15.109375 C 5.644531 -15.441406 5.152344 -16.097656 4.785156 -16.980469 C 4.375 -17.800781 4.085938 -18.894531 4.019531 -20.273438 C 3.902344 -21.648438 3.992188 -23.40625 4.300781 -25.496094 C 2.9375 -24.867188 1.761719 -24.003906 0.8125 -22.960938 C -0.1875 -21.914062 -0.96875 -20.738281 -1.582031 -19.480469 C -2.242188 -18.164062 -2.6875 -16.773438 -2.96875 -15.300781 C -3.25 -13.828125 -3.332031 -12.429688 -3.257812 -11 C -3.179688 -9.523438 -2.902344 -8.117188 -2.4375 -6.839844 C -1.964844 -5.511719 -1.308594 -4.359375 -0.375 -3.445312 C 0.515625 -2.476562 1.632812 -1.742188 3.03125 -1.246094 C 4.378906 -0.746094 6.039062 -0.59375 7.96875 -0.777344 Z M 7.96875 -0.777344 "/></g></g></g><g fill="#ff914d" fill-opacity="1"><g transform="translate(235.274228, 206.228468)"><g><path d="M -0.1875 -0.285156 C 0.859375 -0.105469 2.074219 -0.257812 3.453125 -0.734375 C 4.832031 -1.214844 6.226562 -2 7.632812 -3.101562 C 9.035156 -4.199219 10.355469 -5.59375 11.632812 -7.292969 C 12.863281 -8.984375 13.953125 -10.96875 14.804688 -13.234375 C 14.492188 -12.835938 14.183594 -12.4375 13.867188 -12.089844 C 13.550781 -11.742188 13.234375 -11.394531 12.910156 -11.097656 C 12.175781 -10.390625 11.429688 -9.785156 10.667969 -9.28125 C 9.910156 -8.777344 9.238281 -8.382812 8.554688 -8.09375 C 7.828125 -7.746094 7.183594 -7.566406 6.613281 -7.597656 C 6.050781 -7.578125 5.714844 -7.796875 5.5625 -8.1875 C 5.363281 -8.574219 5.304688 -9.027344 5.433594 -9.660156 C 5.566406 -10.242188 5.789062 -10.9375 6.105469 -11.695312 C 6.429688 -12.402344 6.753906 -13.113281 7.078125 -13.820312 C 7.40625 -14.476562 7.789062 -15.140625 8.128906 -15.695312 C 8.472656 -16.253906 8.726562 -16.695312 8.847656 -16.964844 L 8.800781 -16.910156 L 14.929688 -28.453125 C 15.25 -28.75 15.625 -29.054688 16.042969 -29.414062 C 16.460938 -29.773438 16.878906 -30.132812 17.339844 -30.550781 C 17.757812 -30.910156 18.175781 -31.269531 18.636719 -31.6875 C 19.105469 -32.050781 19.570312 -32.46875 20.074219 -32.941406 C 21 -33.777344 21.96875 -34.667969 22.882812 -35.601562 C 23.792969 -36.535156 24.691406 -37.570312 25.535156 -38.652344 C 26.378906 -39.730469 27.121094 -40.800781 27.804688 -41.910156 C 28.4375 -43.015625 28.875 -44.046875 29.160156 -45.058594 C 29.402344 -46.011719 29.441406 -46.941406 29.292969 -47.746094 C 29.089844 -48.542969 28.644531 -49.257812 27.847656 -49.878906 C 27.292969 -50.222656 26.640625 -50.5 25.90625 -50.617188 C 25.171875 -50.730469 24.359375 -50.679688 23.511719 -50.472656 C 22.617188 -50.210938 21.796875 -49.800781 20.945312 -49.179688 C 20.097656 -48.5625 19.375 -47.753906 18.730469 -46.75 C 15.511719 -41.625 12.542969 -36.535156 9.777344 -31.464844 C 7.015625 -26.398438 4.210938 -21.222656 1.371094 -15.941406 L -0.0625 -13.398438 C -0.308594 -12.90625 -0.558594 -12.414062 -0.8125 -11.972656 C -1.0625 -11.53125 -1.261719 -11.042969 -1.464844 -10.605469 C -1.957031 -9.621094 -2.359375 -8.699219 -2.652344 -7.738281 C -2.992188 -6.769531 -3.183594 -5.824219 -3.230469 -4.945312 C -3.359375 -3.488281 -3.121094 -2.386719 -2.566406 -1.636719 C -2.007812 -0.882812 -1.234375 -0.414062 -0.1875 -0.285156 Z M 15.082031 -30.9375 L 24.574219 -46.445312 C 24.828125 -46.886719 25.199219 -47.1875 25.59375 -47.339844 C 25.992188 -47.441406 26.300781 -47.429688 26.628906 -47.261719 C 26.855469 -47.085938 27.097656 -46.808594 27.246094 -46.414062 C 27.398438 -46.023438 27.410156 -45.511719 27.335938 -44.882812 C 27.207031 -44.253906 26.890625 -43.492188 26.476562 -42.671875 C 26.070312 -41.800781 25.417969 -40.847656 24.570312 -39.816406 C 23.859375 -38.90625 23.042969 -38.035156 22.179688 -37.105469 C 21.269531 -36.171875 20.402344 -35.292969 19.527344 -34.46875 C 18.601562 -33.632812 17.773438 -32.863281 16.976562 -32.25 C 16.179688 -31.640625 15.566406 -31.203125 15.082031 -30.9375 Z M 15.082031 -30.9375 "/></g></g></g><g fill="#ff914d" fill-opacity="1"><g transform="translate(246.657799, 204.822501)"><g><path d="M -1.691406 23.324219 C -0.414062 22.859375 0.878906 22.085938 2.171875 20.898438 C 3.460938 19.710938 4.730469 18.320312 5.957031 16.628906 C 7.195312 14.984375 8.277344 13.363281 9.308594 11.746094 C 10.34375 10.128906 11.230469 8.578125 12.03125 7.144531 C 12.410156 6.480469 12.746094 5.875 13.039062 5.324219 C 13.328125 4.773438 13.582031 4.332031 13.84375 3.941406 C 14.640625 2.507812 15.484375 1.015625 16.324219 -0.527344 C 17.160156 -2.066406 17.996094 -3.609375 18.820312 -5.253906 C 20.484375 -8.4375 22.054688 -11.507812 23.539062 -14.464844 C 25.023438 -17.421875 26.46875 -20.273438 27.789062 -22.902344 C 28.449219 -24.214844 29.070312 -25.421875 29.652344 -26.523438 C 30.238281 -27.621094 30.726562 -28.660156 31.21875 -29.644531 L 24.085938 -28.761719 C 23.414062 -27.550781 22.792969 -26.34375 22.121094 -25.128906 C 21.449219 -23.917969 20.824219 -22.710938 20.199219 -21.554688 C 19.527344 -20.339844 18.898438 -19.183594 18.226562 -17.972656 C 17.554688 -16.757812 16.933594 -15.550781 16.3125 -14.34375 L 15.183594 -12.253906 C 14.675781 -11.367188 14.15625 -10.585938 13.578125 -9.84375 C 12.957031 -9.050781 12.269531 -8.398438 11.609375 -7.90625 C 10.90625 -7.359375 10.21875 -7.117188 9.496094 -7.132812 C 9.140625 -7.089844 8.910156 -7.316406 8.800781 -7.765625 C 8.664062 -8.054688 8.746094 -8.632812 9.050781 -9.492188 C 9.355469 -10.351562 9.835938 -11.4375 10.503906 -12.703125 C 11.117188 -13.960938 11.734375 -15.21875 12.398438 -16.480469 C 13.019531 -17.6875 13.546875 -18.832031 14.03125 -19.917969 C 14.511719 -21.003906 14.773438 -21.808594 14.800781 -22.429688 C 14.824219 -23.457031 14.675781 -24.261719 14.386719 -24.945312 C 14.09375 -25.628906 13.671875 -26.140625 13.167969 -26.488281 C 12.554688 -26.875 11.867188 -27.046875 11.144531 -27.0625 C 10.421875 -27.074219 9.675781 -26.882812 8.941406 -26.585938 C 9.347656 -26.222656 9.644531 -25.902344 9.78125 -25.609375 C 9.925781 -25.269531 9.921875 -24.90625 9.863281 -24.539062 C 9.761719 -24.117188 9.566406 -23.628906 9.316406 -23.136719 C 9.027344 -22.589844 8.683594 -22.03125 8.355469 -21.375 L 8.359375 -21.324219 L 0.898438 -8.535156 C 0.632812 -8.195312 0.429688 -7.757812 0.179688 -7.265625 C -0.0664062 -6.773438 -0.308594 -6.230469 -0.496094 -5.691406 C -1.082031 -3.769531 -1.066406 -2.386719 -0.546875 -1.523438 C -0.28125 -1.042969 0.078125 -0.625 0.519531 -0.371094 C 0.96875 -0.0664062 1.453125 0.128906 2.03125 0.210938 C 2.5625 0.351562 3.175781 0.328125 3.824219 0.195312 C 4.433594 0.121094 5.070312 -0.113281 5.640625 -0.492188 C 6.792969 -1.148438 7.921875 -2.003906 8.925781 -3.003906 C 9.933594 -4 10.832031 -5.035156 11.625 -6.109375 C 12.324219 -7.121094 12.898438 -7.859375 13.355469 -8.328125 L 8.511719 0.285156 C 4.980469 1.644531 2.183594 3.121094 0.0234375 4.773438 C -2.230469 6.492188 -3.871094 8.183594 -4.960938 9.757812 C -6.09375 11.386719 -6.835938 12.867188 -7.238281 14.199219 C -7.679688 15.589844 -7.886719 16.847656 -7.84375 18.023438 C -7.800781 19.199219 -7.574219 20.199219 -7.105469 21.066406 C -6.945312 21.558594 -6.632812 21.984375 -6.28125 22.351562 C -5.925781 22.71875 -5.527344 23.03125 -5.085938 23.28125 C -4.644531 23.535156 -4.121094 23.625 -3.550781 23.660156 C -2.980469 23.691406 -2.375 23.617188 -1.691406 23.324219 Z M -3.167969 15.957031 C -3.898438 15.839844 -4.355469 15.488281 -4.429688 14.878906 C -4.503906 14.273438 -4.433594 13.597656 -4.117188 12.835938 C -3.84375 12.136719 -3.46875 11.421875 -3.042969 10.703125 C -2.621094 9.980469 -2.183594 9.363281 -1.777344 8.902344 C -0.511719 7.511719 0.933594 6.304688 2.554688 5.285156 C 4.171875 4.261719 5.757812 3.347656 7.351562 2.535156 L 7.40625 2.578125 L 6.363281 4.503906 C 6.109375 4.949219 5.859375 5.441406 5.605469 5.882812 C 5.359375 6.375 5.0625 6.875 4.761719 7.375 C 4.175781 8.421875 3.535156 9.476562 2.84375 10.539062 C 2.160156 11.652344 1.503906 12.605469 0.835938 13.40625 C 0.117188 14.265625 -0.621094 14.921875 -1.28125 15.414062 C -1.941406 15.90625 -2.585938 16.089844 -3.167969 15.957031 Z M -3.167969 15.957031 "/></g></g></g><g fill="#ffde59" fill-opacity="1"><g transform="translate(201.446751, 209.721518)"><g><path d="M 19.359375 -36.246094 C 20.15625 -36.445312 20.941406 -36.75 21.605469 -37.191406 C 22.269531 -37.632812 22.867188 -38.21875 23.289062 -38.941406 C 23.722656 -39.609375 23.980469 -40.410156 24.121094 -41.355469 C 24.210938 -42.289062 24.136719 -43.308594 23.886719 -44.511719 C 23.027344 -43.992188 22.335938 -43.753906 21.703125 -43.878906 C 21.078125 -43.957031 20.527344 -44.25 20.113281 -44.710938 C 19.644531 -45.167969 19.367188 -45.75 19.222656 -46.503906 C 19.085938 -47.203125 19.144531 -47.980469 19.351562 -48.777344 C 19.726562 -50.316406 20.515625 -51.4375 21.652344 -52.195312 C 22.792969 -52.953125 24.171875 -53.433594 25.691406 -53.621094 C 26.804688 -53.757812 28.085938 -53.761719 29.484375 -53.675781 C 30.785156 -53.53125 32.101562 -53.28125 33.367188 -53.027344 C 34.636719 -52.722656 35.804688 -52.402344 36.980469 -52.035156 C 37.527344 -51.792969 38.0625 -51.601562 38.542969 -51.457031 C 38.980469 -51.253906 39.464844 -51.058594 39.902344 -50.855469 C 40.339844 -50.652344 40.773438 -50.449219 41.265625 -50.199219 C 41.710938 -49.949219 42.253906 -49.707031 42.796875 -49.464844 C 43.351562 -49.121094 43.902344 -48.832031 44.496094 -48.597656 C 45.089844 -48.363281 45.691406 -48.074219 46.335938 -47.847656 C 47.585938 -47.28125 48.820312 -46.871094 50.097656 -46.515625 C 51.371094 -46.15625 52.566406 -46.046875 53.730469 -46.191406 C 54.648438 -46.253906 55.492188 -46.511719 56.210938 -46.910156 C 56.933594 -47.308594 57.542969 -47.792969 58.027344 -48.417969 C 58.472656 -48.988281 58.808594 -49.59375 59.023438 -50.339844 C 59.242188 -51.085938 59.304688 -51.8125 59.261719 -52.578125 C 59.15625 -53.847656 58.59375 -55.0625 57.628906 -56.230469 C 56.664062 -57.394531 55.179688 -58.1875 53.269531 -58.671875 L 53.28125 -58.570312 C 53.332031 -57.34375 53.191406 -56.398438 52.921875 -55.648438 C 52.65625 -54.894531 52.269531 -54.28125 51.75 -53.910156 C 51.1875 -53.480469 50.605469 -53.203125 49.898438 -53.117188 C 49.195312 -52.976562 48.429688 -52.933594 47.703125 -53 C 46.671875 -53.027344 45.683594 -53.109375 44.742188 -53.25 C 43.808594 -53.339844 42.859375 -53.53125 41.957031 -53.78125 C 40.109375 -54.167969 38.3125 -54.5625 36.570312 -54.964844 C 34.824219 -55.363281 33.042969 -55.65625 31.171875 -55.835938 C 29.296875 -56.019531 27.464844 -55.894531 25.707031 -55.574219 C 23.898438 -55.246094 22.300781 -54.84375 20.871094 -54.359375 C 19.398438 -53.820312 18.089844 -53.195312 16.898438 -52.429688 C 15.65625 -51.660156 14.632812 -50.816406 13.777344 -49.835938 C 12.878906 -48.800781 12.191406 -47.6875 11.832031 -46.460938 C 11.472656 -45.1875 11.378906 -43.890625 11.546875 -42.523438 C 11.722656 -41.105469 12.128906 -39.871094 12.8125 -38.929688 C 13.457031 -37.878906 14.328125 -37.0625 15.421875 -36.527344 C 16.519531 -35.945312 17.867188 -35.855469 19.359375 -36.246094 Z M 7.96875 -0.777344 C 9.601562 -0.878906 11.171875 -1.480469 12.632812 -2.535156 C 14.09375 -3.589844 15.511719 -5 16.84375 -6.703125 C 18.175781 -8.410156 19.433594 -10.261719 20.664062 -12.363281 C 21.84375 -14.460938 23.0625 -16.667969 24.214844 -18.96875 C 24.839844 -20.175781 25.535156 -21.597656 26.371094 -23.136719 C 27.160156 -24.671875 28.035156 -26.324219 28.949219 -28.078125 L 32.4375 -28.511719 C 31.894531 -27.929688 31.375 -27.144531 30.929688 -26.167969 C 30.4375 -25.179688 30.136719 -24.269531 29.996094 -23.328125 C 29.8125 -22.328125 29.917969 -21.46875 30.320312 -20.699219 C 30.726562 -19.925781 31.496094 -19.507812 32.746094 -19.351562 C 33.792969 -19.226562 34.835938 -19.507812 35.929688 -20.207031 C 36.929688 -20.847656 37.652344 -21.65625 38.148438 -22.640625 L 37.558594 -22.414062 C 36.445312 -22.277344 35.558594 -22.371094 34.898438 -22.753906 C 34.132812 -23.121094 33.746094 -23.742188 33.640625 -24.601562 C 33.535156 -25.460938 33.871094 -26.480469 34.59375 -27.699219 C 35.144531 -28.640625 35.804688 -29.542969 36.519531 -30.402344 C 37.242188 -31.210938 38.015625 -32.023438 38.839844 -32.847656 C 38.460938 -33.003906 38.085938 -33.113281 37.78125 -33.074219 C 37.480469 -33.039062 37.136719 -32.890625 36.75 -32.691406 C 36.421875 -32.445312 36.09375 -32.199219 35.816406 -31.957031 C 35.492188 -31.660156 35.214844 -31.421875 34.984375 -31.1875 L 30.277344 -30.605469 C 31.371094 -32.589844 32.472656 -34.472656 33.574219 -36.355469 C 34.679688 -38.238281 35.808594 -39.921875 36.949219 -41.5 C 38.042969 -43.023438 39.070312 -44.277344 40.082031 -45.226562 C 41.046875 -46.167969 41.953125 -46.742188 42.75 -46.941406 C 41.769531 -47.796875 40.71875 -47.976562 39.542969 -47.523438 C 38.367188 -47.070312 37.136719 -46.199219 35.757812 -44.898438 L 35.699219 -44.941406 C 35.332031 -44.589844 34.75 -43.898438 34.054688 -42.890625 C 33.355469 -41.878906 32.53125 -40.644531 31.621094 -39.300781 C 30.664062 -37.898438 29.667969 -36.386719 28.628906 -34.820312 C 28.0625 -33.980469 27.492188 -33.191406 26.972656 -32.40625 C 26.453125 -31.625 25.882812 -30.835938 25.363281 -30.050781 L 18.332031 -29.183594 L 16.03125 -26.585938 L 23.519531 -27.511719 C 22.734375 -26.386719 21.9375 -25.363281 21.175781 -24.449219 C 20.367188 -23.527344 19.648438 -22.667969 18.964844 -21.964844 C 17.964844 -20.917969 17.003906 -19.976562 16.085938 -19.09375 C 15.117188 -18.203125 14.183594 -17.421875 13.285156 -16.796875 C 12.34375 -16.113281 11.480469 -15.597656 10.652344 -15.238281 C 9.78125 -14.820312 9.03125 -14.625 8.3125 -14.640625 C 7.597656 -14.601562 6.910156 -14.773438 6.300781 -15.109375 C 5.644531 -15.441406 5.152344 -16.097656 4.785156 -16.980469 C 4.375 -17.800781 4.085938 -18.894531 4.019531 -20.273438 C 3.902344 -21.648438 3.992188 -23.40625 4.300781 -25.496094 C 2.9375 -24.867188 1.761719 -24.003906 0.8125 -22.960938 C -0.1875 -21.914062 -0.96875 -20.738281 -1.582031 -19.480469 C -2.242188 -18.164062 -2.6875 -16.773438 -2.96875 -15.300781 C -3.25 -13.828125 -3.332031 -12.429688 -3.257812 -11 C -3.179688 -9.523438 -2.902344 -8.117188 -2.4375 -6.839844 C -1.964844 -5.511719 -1.308594 -4.359375 -0.375 -3.445312 C 0.515625 -2.476562 1.632812 -1.742188 3.03125 -1.246094 C 4.378906 -0.746094 6.039062 -0.59375 7.96875 -0.777344 Z M 7.96875 -0.777344 "/></g></g></g><g fill="#ffde59" fill-opacity="1"><g transform="translate(236.407974, 205.403512)"><g><path d="M -0.1875 -0.285156 C 0.859375 -0.105469 2.074219 -0.257812 3.453125 -0.734375 C 4.832031 -1.214844 6.226562 -2 7.632812 -3.101562 C 9.035156 -4.199219 10.355469 -5.59375 11.632812 -7.292969 C 12.863281 -8.984375 13.953125 -10.96875 14.804688 -13.234375 C 14.492188 -12.835938 14.183594 -12.4375 13.867188 -12.089844 C 13.550781 -11.742188 13.234375 -11.394531 12.910156 -11.097656 C 12.175781 -10.390625 11.429688 -9.785156 10.667969 -9.28125 C 9.910156 -8.777344 9.238281 -8.382812 8.554688 -8.09375 C 7.828125 -7.746094 7.183594 -7.566406 6.613281 -7.597656 C 6.050781 -7.578125 5.714844 -7.796875 5.5625 -8.1875 C 5.363281 -8.574219 5.304688 -9.027344 5.433594 -9.660156 C 5.566406 -10.242188 5.789062 -10.9375 6.105469 -11.695312 C 6.429688 -12.402344 6.753906 -13.113281 7.078125 -13.820312 C 7.40625 -14.476562 7.789062 -15.140625 8.128906 -15.695312 C 8.472656 -16.253906 8.726562 -16.695312 8.847656 -16.964844 L 8.800781 -16.910156 L 14.929688 -28.453125 C 15.25 -28.75 15.625 -29.054688 16.042969 -29.414062 C 16.460938 -29.773438 16.878906 -30.132812 17.339844 -30.550781 C 17.757812 -30.910156 18.175781 -31.269531 18.636719 -31.6875 C 19.105469 -32.050781 19.570312 -32.46875 20.074219 -32.941406 C 21 -33.777344 21.96875 -34.667969 22.882812 -35.601562 C 23.792969 -36.535156 24.691406 -37.570312 25.535156 -38.652344 C 26.378906 -39.730469 27.121094 -40.800781 27.804688 -41.910156 C 28.4375 -43.015625 28.875 -44.046875 29.160156 -45.058594 C 29.402344 -46.011719 29.441406 -46.941406 29.292969 -47.746094 C 29.089844 -48.542969 28.644531 -49.257812 27.847656 -49.878906 C 27.292969 -50.222656 26.640625 -50.5 25.90625 -50.617188 C 25.171875 -50.730469 24.359375 -50.679688 23.511719 -50.472656 C 22.617188 -50.210938 21.796875 -49.800781 20.945312 -49.179688 C 20.097656 -48.5625 19.375 -47.753906 18.730469 -46.75 C 15.511719 -41.625 12.542969 -36.535156 9.777344 -31.464844 C 7.015625 -26.398438 4.210938 -21.222656 1.371094 -15.941406 L -0.0625 -13.398438 C -0.308594 -12.90625 -0.558594 -12.414062 -0.8125 -11.972656 C -1.0625 -11.53125 -1.261719 -11.042969 -1.464844 -10.605469 C -1.957031 -9.621094 -2.359375 -8.699219 -2.652344 -7.738281 C -2.992188 -6.769531 -3.183594 -5.824219 -3.230469 -4.945312 C -3.359375 -3.488281 -3.121094 -2.386719 -2.566406 -1.636719 C -2.007812 -0.882812 -1.234375 -0.414062 -0.1875 -0.285156 Z M 15.082031 -30.9375 L 24.574219 -46.445312 C 24.828125 -46.886719 25.199219 -47.1875 25.59375 -47.339844 C 25.992188 -47.441406 26.300781 -47.429688 26.628906 -47.261719 C 26.855469 -47.085938 27.097656 -46.808594 27.246094 -46.414062 C 27.398438 -46.023438 27.410156 -45.511719 27.335938 -44.882812 C 27.207031 -44.253906 26.890625 -43.492188 26.476562 -42.671875 C 26.070312 -41.800781 25.417969 -40.847656 24.570312 -39.816406 C 23.859375 -38.90625 23.042969 -38.035156 22.179688 -37.105469 C 21.269531 -36.171875 20.402344 -35.292969 19.527344 -34.46875 C 18.601562 -33.632812 17.773438 -32.863281 16.976562 -32.25 C 16.179688 -31.640625 15.566406 -31.203125 15.082031 -30.9375 Z M 15.082031 -30.9375 "/></g></g></g><g fill="#ffde59" fill-opacity="1"><g transform="translate(247.791545, 203.997544)"><g><path d="M -1.691406 23.324219 C -0.414062 22.859375 0.878906 22.085938 2.171875 20.898438 C 3.460938 19.710938 4.730469 18.320312 5.957031 16.628906 C 7.195312 14.984375 8.277344 13.363281 9.308594 11.746094 C 10.34375 10.128906 11.230469 8.578125 12.03125 7.144531 C 12.410156 6.480469 12.746094 5.875 13.039062 5.324219 C 13.328125 4.773438 13.582031 4.332031 13.84375 3.941406 C 14.640625 2.507812 15.484375 1.015625 16.324219 -0.527344 C 17.160156 -2.066406 17.996094 -3.609375 18.820312 -5.253906 C 20.484375 -8.4375 22.054688 -11.507812 23.539062 -14.464844 C 25.023438 -17.421875 26.46875 -20.273438 27.789062 -22.902344 C 28.449219 -24.214844 29.070312 -25.421875 29.652344 -26.523438 C 30.238281 -27.621094 30.726562 -28.660156 31.21875 -29.644531 L 24.085938 -28.761719 C 23.414062 -27.550781 22.792969 -26.34375 22.121094 -25.128906 C 21.449219 -23.917969 20.824219 -22.710938 20.199219 -21.554688 C 19.527344 -20.339844 18.898438 -19.183594 18.226562 -17.972656 C 17.554688 -16.757812 16.933594 -15.550781 16.3125 -14.34375 L 15.183594 -12.253906 C 14.675781 -11.367188 14.15625 -10.585938 13.578125 -9.84375 C 12.957031 -9.050781 12.269531 -8.398438 11.609375 -7.90625 C 10.90625 -7.359375 10.21875 -7.117188 9.496094 -7.132812 C 9.140625 -7.089844 8.910156 -7.316406 8.800781 -7.765625 C 8.664062 -8.054688 8.746094 -8.632812 9.050781 -9.492188 C 9.355469 -10.351562 9.835938 -11.4375 10.503906 -12.703125 C 11.117188 -13.960938 11.734375 -15.21875 12.398438 -16.480469 C 13.019531 -17.6875 13.546875 -18.832031 14.03125 -19.917969 C 14.511719 -21.003906 14.773438 -21.808594 14.800781 -22.429688 C 14.824219 -23.457031 14.675781 -24.261719 14.386719 -24.945312 C 14.09375 -25.628906 13.671875 -26.140625 13.167969 -26.488281 C 12.554688 -26.875 11.867188 -27.046875 11.144531 -27.0625 C 10.421875 -27.074219 9.675781 -26.882812 8.941406 -26.585938 C 9.347656 -26.222656 9.644531 -25.902344 9.78125 -25.609375 C 9.925781 -25.269531 9.921875 -24.90625 9.863281 -24.539062 C 9.761719 -24.117188 9.566406 -23.628906 9.316406 -23.136719 C 9.027344 -22.589844 8.683594 -22.03125 8.355469 -21.375 L 8.359375 -21.324219 L 0.898438 -8.535156 C 0.632812 -8.195312 0.429688 -7.757812 0.179688 -7.265625 C -0.0664062 -6.773438 -0.308594 -6.230469 -0.496094 -5.691406 C -1.082031 -3.769531 -1.066406 -2.386719 -0.546875 -1.523438 C -0.28125 -1.042969 0.078125 -0.625 0.519531 -0.371094 C 0.96875 -0.0664062 1.453125 0.128906 2.03125 0.210938 C 2.5625 0.351562 3.175781 0.328125 3.824219 0.195312 C 4.433594 0.121094 5.070312 -0.113281 5.640625 -0.492188 C 6.792969 -1.148438 7.921875 -2.003906 8.925781 -3.003906 C 9.933594 -4 10.832031 -5.035156 11.625 -6.109375 C 12.324219 -7.121094 12.898438 -7.859375 13.355469 -8.328125 L 8.511719 0.285156 C 4.980469 1.644531 2.183594 3.121094 0.0234375 4.773438 C -2.230469 6.492188 -3.871094 8.183594 -4.960938 9.757812 C -6.09375 11.386719 -6.835938 12.867188 -7.238281 14.199219 C -7.679688 15.589844 -7.886719 16.847656 -7.84375 18.023438 C -7.800781 19.199219 -7.574219 20.199219 -7.105469 21.066406 C -6.945312 21.558594 -6.632812 21.984375 -6.28125 22.351562 C -5.925781 22.71875 -5.527344 23.03125 -5.085938 23.28125 C -4.644531 23.535156 -4.121094 23.625 -3.550781 23.660156 C -2.980469 23.691406 -2.375 23.617188 -1.691406 23.324219 Z M -3.167969 15.957031 C -3.898438 15.839844 -4.355469 15.488281 -4.429688 14.878906 C -4.503906 14.273438 -4.433594 13.597656 -4.117188 12.835938 C -3.84375 12.136719 -3.46875 11.421875 -3.042969 10.703125 C -2.621094 9.980469 -2.183594 9.363281 -1.777344 8.902344 C -0.511719 7.511719 0.933594 6.304688 2.554688 5.285156 C 4.171875 4.261719 5.757812 3.347656 7.351562 2.535156 L 7.40625 2.578125 L 6.363281 4.503906 C 6.109375 4.949219 5.859375 5.441406 5.605469 5.882812 C 5.359375 6.375 5.0625 6.875 4.761719 7.375 C 4.175781 8.421875 3.535156 9.476562 2.84375 10.539062 C 2.160156 11.652344 1.503906 12.605469 0.835938 13.40625 C 0.117188 14.265625 -0.621094 14.921875 -1.28125 15.414062 C -1.941406 15.90625 -2.585938 16.089844 -3.167969 15.957031 Z M -3.167969 15.957031 "/></g></g></g></svg>